# xmcd CD database file
#
# Track frame offsets:
#	150
#	15291
#	25379
#	38126
#	51281
#	63812
#	76000
#	88201
#	101308
#	114326
#	127898
#	140952
#	153017
#	166392
#	178676
#	190539
#	202069
#	214821
#	229574
#	243948
#	258238
#	272391
#	284514
#	296346
#
# Disc length: 4115 seconds
#
# Revision: 0
# Processed by: cddbd v1.5.2PL0 Copyright (c) Steve Scherf et al.
# Submitted via: CDex 1.51
#
DISCID=3e101118
DTITLE=dinah washington - cold cold heart
DYEAR=2005
DGENRE=Blues
TTITLE0=Cold Cold Heart
TTITLE1=Wheels Of Fortune
TTITLE2=You Satisfy
TTITLE3=Embraceable You
TTITLE4=I Can't Get Started With You
TTITLE5=Oo We Walkie Talkie
TTITLE6=A Slick Chick
TTITLE7=Postman Blues
TTITLE8=That's Why A Woman Loves A Heel
TTITLE9=Stairway To The Stars
TTITLE10=I Want To Be Loved
TTITLE11=Sine I Fell For You
TTITLE12=West Side Baby
TTITLE13=You Can Depend On Me
TTITLE14=I Love You Yes I Do
TTITLE15=Walkin' And Talkin'
TTITLE16=Am I Asking Too Much
TTITLE17=Resolution Blues
TTITLE18=I Want To Cry
TTITLE19=Long John Blues
TTITLE20=I Sold My Heart To The Junkmann
TTITLE21=It's Too Soon To Know
TTITLE22=It's Funny
TTITLE23=Why Can't You Behave
EXTD=YEAR: 2005
EXTT0=
EXTT1=
EXTT2=
EXTT3=
EXTT4=
EXTT5=
EXTT6=
EXTT7=
EXTT8=
EXTT9=
EXTT10=
EXTT11=
EXTT12=
EXTT13=
EXTT14=
EXTT15=
EXTT16=
EXTT17=
EXTT18=
EXTT19=
EXTT20=
EXTT21=
EXTT22=
EXTT23=
PLAYORDER=
